Coordinates
version=1
nRows=21
nColumns=22
inDegrees=yes

Units are S.I. units (second, meters, Newtons, ...)
If the header above contains a line with 'inDegrees', this indicates whether rotational values are in degrees (yes) or radians (no).

endheader
time	pelvis_tilt	pelvis_list	pelvis_rotation	pelvis_tx	pelvis_ty	pelvis_tz	hip_flexion_r	hip_adduction_r	hip_rotation_r	knee_angle_r	ankle_angle_r	subtalar_angle_r	hip_flexion_l	hip_adduction_l	hip_rotation_l	knee_angle_l	ankle_angle_l	subtalar_angle_l	lumbar_extension	lumbar_bending	lumbar_rotation
      4.34000000	     -6.01137980	     -7.84862654	     43.81397760	      0.73977774	      0.95932043	      0.23922339	     37.08888030	      3.15159780	     -0.72345039	    -26.64459815	      3.85669859	     -3.40630602	      9.70396471	      1.87501904	      3.38425337	    -43.04917719	     17.03135973	      5.05173858	      1.28402614	      3.71808343	      1.61302571
      4.35000000	     -5.91685368	     -8.16170660	     44.05221111	      0.74635191	      0.96041734	      0.23577625	     36.68742200	      3.45436291	     -1.03774090	    -26.49445240	      4.23822773	     -3.92891223	     10.52249398	      1.30398272	      2.95805492	    -44.74296330	     15.88463289	      5.45878570	      1.54861235	      4.02048171	      1.68590764
      4.36000000	     -5.78150447	     -8.49007289	     44.29053401	      0.75277010	      0.96146846	      0.23246881	     36.26685859	      3.79648218	     -1.36563423	    -26.30787434	      4.59267256	     -4.23538071	     11.38374536	      0.65173712	      2.45069450	    -46.48091234	     14.84256293	      5.66272693	      1.77159114	      4.36444645	      1.74898135
      4.37000000	     -5.64906117	     -8.83158571	     44.53637372	      0.75901044	      0.96241079	      0.22930229	     35.86367706	      4.14957348	     -1.67089338	    -26.09466067	      4.93270592	     -4.52536557	     12.32105160	     -0.04224691	      1.89377964	    -48.24908132	     13.89364617	      5.85281564	      1.98955282	      4.71240286	      1.77778367
      4.38000000	     -5.46557747	     -9.17406539	     44.77993408	      0.76513759	      0.96332635	      0.22628742	     35.42161588	      4.55266496	     -1.95397501	    -25.84049740	      5.23963432	     -4.72071510	     13.26948912	     -0.82110843	      1.27518550	    -50.01388730	     13.07022058	      5.95438720	      2.14855517	      5.09430605	      1.79591924
      4.39000000	     -5.26312816	     -9.53218324	     45.03703699	      0.77109492	      0.96414261	      0.22342767	     34.98939718	      4.98333028	     -2.23034331	    -25.56871062	      5.54235163	     -4.93322823	     14.27115130	     -1.64982325	      0.66668784	    -51.76431977	     12.37343230	      6.04206163	      2.28684949	      5.49496645	      1.81193668
      4.40000000	     -5.05983502	     -9.90491665	     45.32091477	      0.77689205	      0.96484506	      0.22068601	     34.59367581	      5.40738418	     -2.58246931	    -25.30649556	      5.81349699	     -5.26186354	     15.32818213	     -2.52189347	      0.05551914	    -53.45755660	     11.85287327	      6.11935797	      2.43039193	      5.89540072	      1.79925496
      4.41000000	     -4.79375110	    -10.24935899	     45.59831363	      0.78261933	      0.96559547	      0.21809094	     34.12190042	      5.88067300	     -2.87748732	    -24.99477715	      6.06245627	     -5.49806157	     16.33177548	     -3.45081813	     -0.56277031	    -55.03769847	     11.52080143	      6.00348034	      2.48599232	      6.31262917	      1.81123186
      4.42000000	     -4.50987283	    -10.56726856	     45.87376324	      0.78823221	      0.96635611	      0.21560124	     33.62436809	      6.35619219	     -3.16216834	    -24.66469838	      6.28890121	     -5.70720879	     17.30764073	     -4.38340331	     -1.16098064	    -56.46887582	     11.40051729	      5.73584606	      2.49961127	      6.71616659	      1.83272054
      4.43000000	     -4.22347761	    -10.84836478	     46.14474267	      0.79369849	      0.96713339	      0.21322249	     33.10258663	      6.82283605	     -3.38370146	    -24.31541510	      6.51640382	     -5.88101429	     18.25595844	     -5.27276517	     -1.69913612	    -57.73379230	     11.49577235	      5.36803843	      2.46976034	      7.08724058	      1.88346314
      4.44000000	     -3.93503290	    -11.07266015	     46.43894719	      0.79895589	      0.96797302	      0.21084315	     32.55969389	      7.22424216	     -3.69688206	    -23.98297797	      6.70961930	     -6.13352501	     19.15250781	     -6.07919216	     -2.16190998	    -58.79869446	     11.73957858	      4.70594280	      2.39010297	      7.41544618	      1.94458023
      4.45000000	     -3.67814316	    -11.24625688	     46.70306233	      0.80405162	      0.96883914	      0.20854754	     32.00754412	      7.59236150	     -3.89955765	    -23.64329854	      6.92487997	     -6.30244578	     20.01238301	     -6.78040018	     -2.57909263	    -59.65443361	     12.15787063	      4.14027793	      2.28466278	      7.68125523	      2.04157580
      4.46000000	     -3.46891281	    -11.38300320	     46.94157065	      0.80897569	      0.96971503	      0.20628925	     31.46574980	      7.90733156	     -4.05873800	    -23.29359918	      7.11667026	     -6.40119866	     20.84894947	     -7.36155819	     -2.94601006	    -60.28936068	     12.71083221	      3.74826014	      2.18516367	      7.88339253	      2.17334644
      4.47000000	     -3.27618536	    -11.44825099	     47.19163442	      0.81364078	      0.97064632	      0.20401315	     30.90319612	      8.14271405	     -4.23764688	    -22.97118244	      7.36131953	     -6.54219093	     21.62018601	     -7.78893110	     -3.21681179	    -60.71067447	     13.27448546	      3.25555947	      2.03139848	      8.02714216	      2.30714308
      4.48000000	     -3.13925439	    -11.50614955	     47.40084486	      0.81813113	      0.97152624	      0.20178519	     30.38732277	      8.34271997	     -4.36994744	    -22.65509358	      7.57005519	     -6.58943671	     22.39193531	     -8.10562000	     -3.44949705	    -60.92743212	     13.87101344	      3.08441940	      1.91212174	      8.12950217	      2.49483725
      4.49000000	     -3.06687578	    -11.51140603	     47.59459844	      0.82240115	      0.97238300	      0.19956918	     29.89430779	      8.45535197	     -4.46249877	    -22.36447722	      7.85981361	     -6.62481150	     23.12493869	     -8.25046062	     -3.61619100	    -60.92704831	     14.45439430	      3.01962070	      1.79383784	      8.14403423	      2.68167893
      4.50000000	     -2.93074407	    -11.53264944	     47.79798322	      0.82655407	      0.97328147	      0.19731578	     29.34519468	      8.61632744	     -4.60707469	    -22.00964735	      8.05035550	     -6.63273938	     23.79435244	     -8.40269812	     -3.71430022	    -60.74919898	     14.98384512	      3.01734561	      1.65078659	      8.23477043	      2.88680771
      4.51000000	     -2.88970765	    -11.52103521	     47.96742170	      0.83051461	      0.97407958	      0.19511026	     28.86245443	      8.69106849	     -4.67274159	    -21.69399410	      8.31895249	     -6.63484853	     24.45313373	     -8.39358595	     -3.77342500	    -60.37983304	     15.49425453	      3.09223026	      1.54978087	      8.22549170	      3.09317429
      4.52000000	     -2.74578189	    -11.49400867	     48.14695777	      0.83442361	      0.97498279	      0.19286294	     28.27447300	      8.82761703	     -4.78716721	    -21.32721320	      8.53993421	     -6.55028573	     24.98203815	     -8.42509172	     -3.77904465	    -59.85280337	     15.97114749	      3.46982934	      1.36609190	      8.29340578	      3.32322281
      4.53000000	     -2.65951525	    -11.46360181	     48.30948196	      0.83818616	      0.97577693	      0.19062062	     27.74677845	      8.91789402	     -4.86393822	    -20.99550321	      8.79671675	     -6.46072737	     25.49814713	     -8.37462393	     -3.75440996	    -59.17457011	     16.43427939	      3.85958903	      1.23348102	      8.31613239	      3.54803531
      4.54000000	     -2.56361568	    -11.43479934	     48.48184813	      0.84184771	      0.97653058	      0.18836464	     27.21703021	      9.01106784	     -4.93805572	    -20.65980993	      9.04100722	     -6.35462495	     25.96669237	     -8.31282967	     -3.68524329	    -58.37295377	     16.87748252	      4.27300435	      1.10970507	      8.34837291	      3.75550891
